<svg width="261" height="260" viewBox="0 0 261 260" fill="none" xmlns="http://www.w3.org/2000/svg">
<g filter="url(#filter0_d_20_1666)">
<rect x="40.724" y="36" width="180" height="180" rx="32" fill="white"/>
<rect x="41.224" y="36.5" width="179" height="179" rx="31.5" stroke="#D9D9D9"/>
</g>
<path d="M130.552 76.2971C102.904 76.2971 80.5522 98.6491 80.5522 126.297C80.5522 153.945 102.904 176.297 130.552 176.297C158.2 176.297 180.552 153.945 180.552 126.297V76.2971H130.552Z" fill="#F0047F"/>
<path d="M127.833 129.016V165.466C108.434 164.358 92.8179 148.925 91.4214 129.602L91.3835 129.016H127.833ZM163.366 129.016C162.35 148.416 148.203 164.031 130.491 165.428L129.953 165.466V129.016H163.366ZM163.409 93.4399V126.896H129.953V93.4399H163.409Z" fill="white"/>
<defs>
<filter id="filter0_d_20_1666" x="0.723999" y="0" width="260" height="260" filterUnits="userSpaceOnUse" color-interpolation-filters="sRGB">
<feFlood flood-opacity="0" result="BackgroundImageFix"/>
<feColorMatrix in="SourceAlpha" type="matrix" values="0 0 0 0 0 0 0 0 0 0 0 0 0 0 0 0 0 0 127 0" result="hardAlpha"/>
<feOffset dy="4"/>
<feGaussianBlur stdDeviation="20"/>
<feComposite in2="hardAlpha" operator="out"/>
<feColorMatrix type="matrix" values="0 0 0 0 0.0367917 0 0 0 0 0.0348958 0 0 0 0 0.0484375 0 0 0 0.1 0"/>
<feBlend mode="normal" in2="BackgroundImageFix" result="effect1_dropShadow_20_1666"/>
<feBlend mode="normal" in="SourceGraphic" in2="effect1_dropShadow_20_1666" result="shape"/>
</filter>
</defs>
</svg>
