<?xml version="1.0" encoding="iso-8859-1"?>
<!-- Generator: Adobe Illustrator 19.0.0, SVG Export Plug-In . SVG Version: 6.00 Build 0)  -->
<svg version="1.1" id="Layer_1" xmlns="http://www.w3.org/2000/svg" xmlns:xlink="http://www.w3.org/1999/xlink" x="0px" y="0px"
	 viewBox="0 0 512 512" style="enable-background:new 0 0 512 512;" xml:space="preserve">
<circle style="fill:#E7B636;" cx="256" cy="189.217" r="189.217"/>
<path style="fill:#DE9E2B;" d="M445.217,189.217C445.217,84.715,360.503,0,256,0v378.435
	C360.503,378.435,445.217,293.72,445.217,189.217z"/>
<path style="fill:#575771;" d="M456.348,445.217H55.652c-6.327,0-12.114-3.576-14.94-9.239s-2.206-12.435,1.598-17.495
	l17.587-23.375c21.793-28.989,41.37-60.174,58.169-92.68c7.864-14.995,15.337-30.918,22.255-47.429
	c2.153-5.13,6.717-8.853,12.174-9.924c5.456-1.076,11.104,0.641,15.027,4.576l21.694,21.697l21.587-21.587
	c6.521-6.521,17.087-6.521,23.609,0L256,271.348l21.587-21.587c6.521-6.521,17.087-6.521,23.609,0l21.586,21.587l21.695-21.695
	c3.935-3.935,9.581-5.646,15.027-4.576c5.456,1.071,10.022,4.794,12.174,9.924c6.919,16.511,14.392,32.435,22.206,47.337
	c16.848,32.598,36.424,63.783,58.218,92.777l17.587,23.369c3.804,5.06,4.424,11.832,1.598,17.495S462.674,445.217,456.348,445.217z"
	/>
<path style="fill:#494965;" d="M456.348,445.217c6.327,0,12.114-3.576,14.94-9.239s2.206-12.435-1.598-17.495l-17.587-23.369
	c-21.793-28.995-41.37-60.179-58.218-92.777c-7.815-14.903-15.288-30.826-22.206-47.337c-2.153-5.13-6.717-8.853-12.174-9.924
	c-5.446-1.071-11.093,0.641-15.027,4.576l-21.694,21.695l-21.587-21.587c-6.521-6.521-17.087-6.521-23.609,0L256,271.348v173.87
	H456.348z"/>
<path style="fill:#E6EBF0;" d="M322.783,311.652c-4.272,0-8.544-1.631-11.804-4.892l-21.587-21.586l-21.587,21.587
	c-6.521,6.521-17.087,6.521-23.609,0l-21.586-21.587l-21.587,21.587c-6.521,6.521-17.087,6.521-23.609,0l-33.5-33.5
	c-4.821-4.815-6.229-12.081-3.554-18.347c13.283-31.18,24.272-64.006,32.663-97.57c1.859-7.435,8.533-12.648,16.196-12.648h133.565
	c7.663,0,14.337,5.212,16.196,12.646c8.391,33.565,19.38,66.391,32.663,97.571c2.674,6.266,1.267,13.532-3.554,18.347l-33.5,33.5
	C331.326,310.022,327.054,311.652,322.783,311.652z"/>
<path style="fill:#D0D9E4;" d="M338.978,157.342c-1.859-7.434-8.533-12.646-16.196-12.646H256v166.957
	c4.272,0,8.544-1.631,11.804-4.892l21.587-21.586l21.587,21.587c3.261,3.261,7.533,4.892,11.804,4.892s8.544-1.631,11.804-4.892
	l33.5-33.5c4.821-4.815,6.229-12.081,3.554-18.347C358.359,223.734,347.37,190.908,338.978,157.342z"/>
<path style="fill:#E4E9EE;" d="M495.304,445.217H16.696C7.473,445.217,0,437.744,0,428.522s7.473-16.696,16.696-16.696h478.609
	c9.223,0,16.696,7.473,16.696,16.696S504.527,445.217,495.304,445.217z"/>
<g>
	<path style="fill:#CED7E2;" d="M495.304,411.826H256v33.391h239.304c9.223,0,16.696-7.473,16.696-16.696
		S504.527,411.826,495.304,411.826z"/>
	<path style="fill:#CED7E2;" d="M456.348,512H322.783c-9.223,0-16.696-7.473-16.696-16.696s7.473-16.696,16.696-16.696h133.565
		c9.223,0,16.696,7.473,16.696,16.696S465.57,512,456.348,512z"/>
</g>
<path style="fill:#E4E9EE;" d="M189.217,512H55.652c-9.223,0-16.696-7.473-16.696-16.696s7.473-16.696,16.696-16.696h133.565
	c9.223,0,16.696,7.473,16.696,16.696S198.44,512,189.217,512z"/>
<g>
</g>
<g>
</g>
<g>
</g>
<g>
</g>
<g>
</g>
<g>
</g>
<g>
</g>
<g>
</g>
<g>
</g>
<g>
</g>
<g>
</g>
<g>
</g>
<g>
</g>
<g>
</g>
<g>
</g>
</svg>
