<svg width="261" height="260" viewBox="0 0 261 260" fill="none" xmlns="http://www.w3.org/2000/svg">
<g filter="url(#filter0_d_20_1667)">
<rect x="40.724" y="36" width="180" height="180" rx="32" fill="white"/>
<rect x="41.224" y="36.5" width="179" height="179" rx="31.5" stroke="#D9D9D9"/>
</g>
<path d="M164.611 114.44C164.455 111.006 164.923 107.962 163.362 105.387C159.616 98.9866 150.25 95.2402 131.518 95.2402V95.7866H131.128H131.518V95.2402C112.786 95.2402 102.952 98.9866 99.2057 105.465C97.7228 108.118 97.8789 111.084 97.6447 114.518C97.4887 117.25 96.2399 120.138 96.7862 123.26C97.4106 127.319 97.6447 131.377 98.2691 135.123C98.7374 138.167 102.952 140.743 103.342 143.631C104.435 151.592 112.708 155.26 131.44 155.26V155.885H130.972H131.518V155.26C150.25 155.26 158.211 151.592 159.226 143.631C159.616 140.665 163.518 138.167 163.987 135.123C164.611 131.377 164.845 127.319 165.469 123.26C166.016 120.138 164.767 117.172 164.611 114.44Z" fill="#EFCCA3"/>
<path d="M131.206 117.25C134.562 117.328 136.904 119.436 139.089 121.387C141.665 123.65 146.035 125.211 147.83 127.163C149.626 129.114 151.967 131.065 152.826 134.109C153.684 137.153 153.918 141.055 153.918 142.07C153.918 143.085 154.465 142.85 156.026 142.07C159.694 140.275 163.752 135.436 163.752 135.436C163.284 138.48 159.304 141.211 158.913 144.099C157.977 152.06 150.25 155.885 131.128 155.885H131.05H131.518" fill="#CCAC8D"/>
<path d="M143.538 111.162C144.24 113.582 146.738 121.777 141.899 119.045C141.899 119.045 143.928 120.216 145.177 124.665C146.504 129.114 149.704 129.66 149.704 129.66C149.704 129.66 154.933 130.674 158.835 127.318C162.113 124.509 162.66 119.513 161.255 115.689C159.85 111.943 157.352 110.772 153.684 109.991C150.016 109.133 142.679 108.43 143.538 111.162Z" fill="#CCAC8D"/>
<path d="M152.826 126.928C156.619 126.928 159.694 123.853 159.694 120.06C159.694 116.267 156.619 113.192 152.826 113.192C149.032 113.192 145.957 116.267 145.957 120.06C145.957 123.853 149.032 126.928 152.826 126.928Z" fill="black"/>
<path d="M151.031 118.811C152.022 118.811 152.826 118.007 152.826 117.016C152.826 116.025 152.022 115.221 151.031 115.221C150.039 115.221 149.235 116.025 149.235 117.016C149.235 118.007 150.039 118.811 151.031 118.811Z" fill="white"/>
<path d="M142.367 119.748C142.367 119.748 148.533 123.962 151.889 128.099C155.245 132.236 155.167 133.016 155.167 133.016L152.748 134.109C152.748 134.109 149.313 127.631 145.099 125.211C140.806 122.792 140.338 120.762 140.338 120.762L142.367 119.748Z" fill="#EFCCA3"/>
<path d="M131.44 117.25C128.084 117.328 125.586 119.436 123.323 121.387C120.747 123.65 116.22 125.211 114.425 127.163C112.63 129.114 110.211 131.065 109.352 134.109C108.494 137.153 108.181 141.055 108.181 142.07C108.181 143.085 108.338 143.163 106.074 142.07C102.406 140.353 98.3472 135.436 98.3472 135.436C98.8155 138.48 102.796 141.211 103.186 144.099C104.279 152.06 112.006 155.885 131.128 155.885H131.518" fill="#CCAC8D"/>
<path d="M149.548 130.441C145.801 125.836 139.791 121.543 131.44 121.543H131.362C123.011 121.543 117.001 125.836 113.255 130.441C109.352 135.202 109.664 137.075 109.664 141.602C109.664 157.992 115.44 153.309 119.264 155.338C123.167 157.289 127.225 156.665 131.362 156.665H131.44C135.655 156.665 139.635 157.211 143.538 155.26C147.362 153.309 153.138 158.148 153.138 141.758C153.216 137.231 153.45 135.202 149.548 130.441Z" fill="#56332B"/>
<path d="M131.05 125.601C131.05 125.601 130.504 133.172 129.411 134.655L131.44 134.187L131.05 125.601Z" fill="#442823"/>
<path d="M131.596 125.601C131.596 125.601 132.143 133.172 133.235 134.655L131.206 134.187L131.596 125.601Z" fill="#442823"/>
<path d="M125.04 123.806C124.26 122.011 127.069 119.123 131.518 119.045C135.967 119.045 138.777 121.933 137.996 123.806C137.216 125.679 134.406 126.226 131.518 126.304C128.708 126.226 125.821 125.679 125.04 123.806Z" fill="#56332B"/>
<path d="M131.518 125.601C131.518 125.289 134.172 125.211 135.577 124.274C135.577 124.274 132.689 125.211 132.064 124.821C131.44 124.509 131.284 123.572 131.284 123.572C131.284 123.572 131.05 124.509 130.582 124.821C130.035 125.133 126.757 124.274 126.757 124.274C126.757 124.274 131.128 125.367 131.128 125.601C131.128 125.835 131.05 126.616 131.05 127.162C131.05 129.114 131.05 133.953 131.362 134.343C131.83 135.045 131.674 129.114 131.674 127.162C131.596 126.538 131.596 125.913 131.518 125.601Z" fill="black"/>
<path d="M131.674 136.06C133.001 136.06 135.342 136.996 137.45 138.479C135.421 136.216 133.001 134.655 131.674 134.655C130.269 134.655 127.303 136.372 125.196 138.87C127.382 137.153 130.191 136.06 131.674 136.06Z" fill="#7F4A41"/>
<path d="M131.128 149.875C128.162 149.875 125.274 148.938 122.621 148.236C122.074 148.08 121.528 148.47 120.981 148.314C116.064 146.753 112.084 144.099 109.664 140.743V141.523C109.664 157.914 115.44 153.309 119.264 155.26C123.167 157.211 127.225 156.587 131.362 156.587H131.44C135.655 156.587 139.635 157.133 143.538 155.182C147.362 153.231 153.138 157.992 153.138 141.602C153.138 140.977 153.138 140.353 153.216 139.806C150.952 143.475 146.816 146.363 141.665 148.08C141.196 148.236 140.104 147.846 139.635 147.924C136.825 148.86 134.328 149.875 131.128 149.875Z" fill="#442823"/>
<path d="M123.713 141.055C123.713 141.055 121.762 146.909 123.089 149.485L121.294 148.704C121.294 148.704 122.621 142.772 123.713 141.055ZM139.167 141.055C139.167 141.055 141.118 146.909 139.791 149.485L141.586 148.704C141.586 148.704 140.182 142.772 139.167 141.055Z" fill="#442823"/>
<path d="M118.718 111.162C118.016 113.582 115.518 121.777 120.357 119.045C120.357 119.045 118.328 120.216 117.079 124.665C115.83 129.114 112.552 129.66 112.552 129.66C112.552 129.66 107.323 130.674 103.42 127.318C100.142 124.509 99.596 119.513 101.001 115.689C102.406 111.865 104.903 110.772 108.572 109.991C112.24 109.133 119.499 108.43 118.718 111.162Z" fill="#CCAC8D"/>
<path d="M131.44 134.655C133.547 134.655 140.104 139.182 140.182 144.723V144.411C140.182 138.636 134.874 134.031 131.44 134.031C128.006 134.031 122.699 138.714 122.699 144.411V144.723C122.777 139.182 129.333 134.655 131.44 134.655Z" fill="black"/>
<path d="M133.144 123.849C133.478 123.763 133.618 123.185 133.456 122.559C133.295 121.933 132.893 121.495 132.559 121.582C132.225 121.668 132.085 122.245 132.247 122.871C132.408 123.497 132.81 123.935 133.144 123.849Z" fill="#331712"/>
<path d="M129.132 123.837C129.462 123.939 129.884 123.521 130.075 122.904C130.267 122.286 130.155 121.703 129.826 121.601C129.497 121.499 129.074 121.916 128.883 122.534C128.691 123.151 128.803 123.735 129.132 123.837Z" fill="#331712"/>
<path d="M109.82 126.928C113.614 126.928 116.689 123.853 116.689 120.06C116.689 116.267 113.614 113.192 109.82 113.192C106.027 113.192 102.952 116.267 102.952 120.06C102.952 123.853 106.027 126.928 109.82 126.928Z" fill="black"/>
<path d="M111.616 118.811C112.607 118.811 113.411 118.007 113.411 117.016C113.411 116.025 112.607 115.221 111.616 115.221C110.624 115.221 109.82 116.025 109.82 117.016C109.82 118.007 110.624 118.811 111.616 118.811Z" fill="white"/>
<path d="M133.469 120.138C133.469 120.06 131.674 120.918 131.206 120.996C130.738 120.918 128.943 120.06 128.943 120.138H133.469Z" fill="#7F4A41"/>
<path d="M119.811 119.748C119.811 119.748 113.645 123.962 110.289 128.099C106.933 132.236 107.011 133.016 107.011 133.016L109.43 134.109C109.43 134.109 112.864 127.631 117.079 125.211C121.294 122.792 121.84 120.762 121.84 120.762L119.811 119.748Z" fill="#EFCCA3"/>
<path d="M106.308 107.26C106.308 107.26 104.201 113.035 99.5179 115.455C99.5179 115.455 106.855 114.596 106.308 107.26ZM155.557 107.26C155.557 107.26 157.665 113.035 162.348 115.455C162.348 115.455 155.011 114.596 155.557 107.26ZM142.211 118.031C142.211 118.031 137.606 113.192 131.44 113.035H131.518H131.596C125.352 113.192 120.825 118.031 120.825 118.031C126.211 114.284 130.816 114.362 131.596 114.362C131.518 114.362 136.825 114.284 142.211 118.031ZM136.825 107.884C136.825 107.884 134.484 104.606 131.362 104.528H131.518C129.177 104.606 126.133 107.884 126.133 107.884C128.786 105.309 131.518 105.387 131.518 105.387C131.518 105.387 134.094 105.309 136.825 107.884ZM109.82 131.845C109.82 131.845 106.152 133.64 103.498 132.548H103.42C101.079 131.221 99.9082 127.24 99.9082 127.24C99.9082 127.24 102.25 134.265 109.82 131.845ZM152.591 131.845C152.591 131.845 156.26 133.64 158.913 132.548C162.035 131.221 162.504 127.24 162.504 127.24C162.504 127.24 160.162 134.265 152.591 131.845Z" fill="#CCAC8D"/>
<path d="M114.035 106.87C116.064 106.479 119.421 106.401 122.074 107.26C125.43 108.431 122.699 112.723 123.401 112.957C124.103 113.192 125.04 109.992 131.284 110.304C137.606 110.616 138.308 113.426 139.167 112.957C140.026 112.489 138.308 105.153 147.752 106.87C147.752 106.87 137.84 104.216 138.308 111.396C138.308 111.396 132.611 107.026 124.65 110.928C124.728 110.928 126.757 104.216 114.035 106.87ZM148.611 106.87C148.767 106.87 148.845 106.948 148.923 106.948C149.001 106.948 148.845 106.87 148.611 106.87ZM111.303 97.2695C111.303 97.2695 102.874 107.884 101.625 111.943C100.376 116.079 99.4399 133.016 98.3472 135.436L94.4447 118.733L101.625 101.328L111.303 97.2695ZM150.952 97.2695C150.952 97.2695 159.382 107.884 160.631 111.943C161.879 116.079 162.816 133.016 163.909 135.436L167.811 118.733L160.631 101.328L150.952 97.2695Z" fill="#CCAC8D"/>
<path d="M150.562 97.2695C150.562 97.2695 159.616 104.84 162.27 113.582C164.923 122.323 163.831 132.938 165.86 134.265C168.748 136.138 172.026 124.977 173.119 123.806C174.836 121.933 180.533 117.172 180.924 116.314C181.314 115.455 169.372 102.421 164.143 99.8451C157.821 96.8792 150.016 96.6451 150.562 97.2695Z" fill="#56332B"/>
<path d="M158.289 101.952C158.289 101.952 168.982 115.611 168.826 132.626L173.118 123.884C173.04 123.884 169.294 112.723 158.289 101.952Z" fill="#442823"/>
<path d="M111.303 97.2695C111.303 97.2695 102.25 104.84 99.596 113.582C96.9423 122.323 98.035 132.938 96.0057 134.265C93.1179 136.138 89.8398 124.977 88.7471 123.806C87.03 121.933 81.3324 117.172 80.9422 116.314C80.552 115.455 92.4935 102.421 97.7228 99.8451C104.045 96.8792 111.85 96.6451 111.303 97.2695Z" fill="#56332B"/>
<path d="M103.577 101.952C103.577 101.952 92.8837 115.611 93.0398 132.626L88.8252 123.884C88.8252 123.884 92.5715 112.723 103.577 101.952Z" fill="#442823"/>
<path d="M97.8008 132.938C97.8008 132.938 98.5813 137.153 99.8301 138.48C101.079 139.806 100.22 137.465 100.22 137.465C100.22 137.465 98.8935 136.762 99.1277 131.377C99.3618 125.992 97.8008 132.938 97.8008 132.938ZM164.377 132.938C164.377 132.938 163.596 137.153 162.348 138.48C161.099 139.806 161.957 137.465 161.957 137.465C161.957 137.465 163.284 136.762 163.05 131.377C162.816 125.992 164.377 132.938 164.377 132.938Z" fill="#CCAC8D"/>
<path d="M123.323 130.363C123.668 130.363 123.947 130.083 123.947 129.738C123.947 129.393 123.668 129.114 123.323 129.114C122.978 129.114 122.699 129.393 122.699 129.738C122.699 130.083 122.978 130.363 123.323 130.363Z" fill="#442823"/>
<path d="M119.733 134.109C120.078 134.109 120.357 133.829 120.357 133.484C120.357 133.14 120.078 132.86 119.733 132.86C119.388 132.86 119.108 133.14 119.108 133.484C119.108 133.829 119.388 134.109 119.733 134.109Z" fill="#442823"/>
<path d="M118.562 130.363C118.907 130.363 119.186 130.083 119.186 129.738C119.186 129.393 118.907 129.114 118.562 129.114C118.217 129.114 117.938 129.393 117.938 129.738C117.938 130.083 118.217 130.363 118.562 130.363Z" fill="#442823"/>
<path d="M138.543 130.363C138.888 130.363 139.167 130.083 139.167 129.738C139.167 129.393 138.888 129.114 138.543 129.114C138.198 129.114 137.918 129.393 137.918 129.738C137.918 130.083 138.198 130.363 138.543 130.363Z" fill="#442823"/>
<path d="M142.133 134.109C142.478 134.109 142.757 133.829 142.757 133.484C142.757 133.14 142.478 132.86 142.133 132.86C141.788 132.86 141.508 133.14 141.508 133.484C141.508 133.829 141.788 134.109 142.133 134.109Z" fill="#442823"/>
<path d="M143.304 130.363C143.648 130.363 143.928 130.083 143.928 129.738C143.928 129.393 143.648 129.114 143.304 129.114C142.959 129.114 142.679 129.393 142.679 129.738C142.679 130.083 142.959 130.363 143.304 130.363Z" fill="#442823"/>
<defs>
<filter id="filter0_d_20_1667" x="0.723999" y="0" width="260" height="260" filterUnits="userSpaceOnUse" color-interpolation-filters="sRGB">
<feFlood flood-opacity="0" result="BackgroundImageFix"/>
<feColorMatrix in="SourceAlpha" type="matrix" values="0 0 0 0 0 0 0 0 0 0 0 0 0 0 0 0 0 0 127 0" result="hardAlpha"/>
<feOffset dy="4"/>
<feGaussianBlur stdDeviation="20"/>
<feComposite in2="hardAlpha" operator="out"/>
<feColorMatrix type="matrix" values="0 0 0 0 0.0367917 0 0 0 0 0.0348958 0 0 0 0 0.0484375 0 0 0 0.1 0"/>
<feBlend mode="normal" in2="BackgroundImageFix" result="effect1_dropShadow_20_1667"/>
<feBlend mode="normal" in="SourceGraphic" in2="effect1_dropShadow_20_1667" result="shape"/>
</filter>
</defs>
</svg>
