<svg xmlns="http://www.w3.org/2000/svg" viewBox="0 0 462 475" width="462" height="475"><title>38014724_1962801540439033_5482137213422534656_n 1</title><style>		.s0 { fill: #3f3f40 } 		.s1 { fill: #00aeef } 		.s2 { fill: #363533 } 		.s3 { fill: #ffffff } 	</style><path id="TM" class="s0" d="m418.5 35.8l-0.1-20.3h-6.4v-2.8h16v2.8h-6.4v20.3zm13.8-23.2h3l7.2 13.9 6.9-13.9h3.1v23.2h-3.1v-16.3l-6.9 12.6-7.2-12.6v16.3h-3z"></path><path id="H K" class="s1" d="m351.6 448.6h-11.1v-53.6h11.1v21.5h19v-21.5h11v53.6h-11v-22.1h-19zm53.8-53.6v22.4l19.6-22.4h13l-18 21.6 19.3 32h-12.8l-14-23.9-7.1 8.2v15.7h-10.4v-53.6z"></path><path id="y" class="s2" d="m281 395l16.5 32c0 0 14-29.2 15.3-31.9 1.7-0.1 11.2-0.1 11.2-0.1 0 0-26.5 57.4-29 62-1.8 4.2-8.3 8.4-12 9-3.7 0.6-11 0-11 0 0 0 0-4.5 0-8 6.7 0.3 9.2-0.8 11.8-2.5 2.9-2.8 6-11 6-11l-25.8-49.5z"></path><path id="a" fill-rule="evenodd" class="s2" d="m217.5 401.9c-0.9-2.8-1.7-4.5-1.7-4.5 0 0 8.9-2.4 12.2-2.4 3.7-0.2 9.2 0.1 11.1 0.1 8 0 19.7 5.8 19.7 12.6 0 5.1 0 40.9 0 40.9h-17v-2.6c0 0-5.5 3-8.2 3.1-2.6 0.1-7.2-0.1-8.6-0.1-1.3 0-14.9-3.5-15-19-0.1-15.5 18-18 19-18 4.1-0.1 12.8 1 12.8 1v-6c0 0-1.4-5.1-5.3-6.2-3.8-1-11.1-1.8-19 1.1zm24.3 19.1c0 0-2-2-5.8-2-4.8 0.1-12.7 3.1-12.8 11.1 0 7.5 5 11.7 10.8 11.9 5.7 0.2 7.8-3 7.8-3z"></path><path id="p" fill-rule="evenodd" class="s2" d="m166.4 469h-16.2v-71l2.8-2h13.4v4c0 0 6.1-4.7 8.6-5 2.7-0.7 10.3-0.6 12 0 1.1 0.2 15.6 3.9 17 22 1.4 18.1-7.8 24.4-11.6 27.5-7.2 7.2-23 4.9-26 3.2 0 7.7 0 21.3 0 21.3zm0-33.6c0 0 4.5 7.6 9.6 7.6 5.1 0 11.1-4.4 11-21-0.1-16.6-6.3-18.1-10.6-18-4.3 0.1-10 5.9-10 5.9z"></path><path id="i." class="s1" d="m128.6 387.8c-5.6 0-10.2-4.4-10.2-9.8 0-5.4 4.6-9.7 10.2-9.7 5.7 0 10.2 4.3 10.2 9.7 0 5.4-4.5 9.8-10.2 9.8z"></path><path id="i" class="s2" d="m136.8 396v52.6h-16.2c0 0 0-45.4 0-50.5 1.2-1.1 2.4-2.1 2.4-2.1z"></path><path id="l" class="s2" d="m106.2 377v71.6h-16.2c0 0 0-64 0-69.6 1-1 2-2 2-2z"></path><path id="A" fill-rule="evenodd" class="s2" d="m7 448.6c5.1-10.3 31.2-61.9 35.2-70.2 1-2.1 3.3-1.4 7.8-1.4 5.7 12.4 33 71.6 33 71.6h-17.5l-5.5-12-34-0.2-6 12.2c0 0-6.1 0-13 0zm36-47.6l-14.6 29.5 28.8 0.1z"></path><g id="Logo"><path id="path3991" class="s1" d="m59.7 62.6c1-30 22.3-50 47-50.6h227.3c22.7 1 45.7 22.6 45.7 50.6l0.3 221.7c0 22.3-25.7 45-45.7 45.7l-227.3-0.4c-26-1-47.3-25.6-47.3-46z"></path><path id="path3995" fill-rule="evenodd" class="s3" d="m381 227.4v50.2c0 0-83.8-35.2-126.1-55.7-28.3 35.2-64.9 56.5-102.9 56.5-64.2 0-86.1-56.7-55.6-94 6.6-8.1 17.9-15.9 35.4-20.2 27.4-6.8 71 4.2 111.8 17.8 7.4-13.7 13.6-28.7 18.2-44.7h-125.9v-12.9h64.9v-23h-78.7v-12.9h78.7v-32.9c0 0 0-5.5 5.6-5.5h31.7v38.4h77.7v12.9h-77.7v23h63.5c-6.1 25.1-15.4 48.2-26.9 68.5 19.2 7 36.5 13.7 49.4 18 46.4 15.7 56.9 16.5 56.9 16.5zm-153.9-19.5c-32.5-16-60.1-27.5-89.8-24.5-8.1 0.8-23.2 4.4-31.4 11.8-24.8 21.7-10 61.5 40.1 61.5 29.1 0 58.2-18.7 81.1-48.8z"></path></g></svg>