<?xml version="1.0" encoding="utf-8"?>
<!-- Generator: Adobe Illustrator 24.1.1, SVG Export Plug-In . SVG Version: 6.00 Build 0)  -->
<svg version="1.1" id="Layer_1" xmlns="http://www.w3.org/2000/svg" xmlns:xlink="http://www.w3.org/1999/xlink" x="0px" y="0px"
	 viewBox="0 0 512 512" style="enable-background:new 0 0 512 512;" xml:space="preserve">
<style type="text/css">
	.st0{fill:#555555;}
</style>
<g>
	<path class="st0" d="M145.1,221.9c0.3,9.6-6.5,17.8-15.6,18.9c-32.8,3.9-56.3,14.1-71.2,29.9c-14.7,15.7-22.4,36.1-23,60.1
		c2.3,25.8,10.8,45.1,25.5,59c14.6,13.7,36.6,21,66.6,21.2l273.1,0c25.5-1.7,44.3-11.4,57.6-29.2c16.9-22.4,20.4-42.6,17.5-65.2
		c-2.2-16.9-12.7-38.4-29.6-53.1c-12.9-11.1-33.3-17.9-61.5-19.7c-9.6-0.6-16.9-9-16.6-19c0.9-28.7-6.8-54.3-23.4-77.6
		c-22.3-31.5-56.9-47.5-90.9-46.2c-33.2,1.3-64,17-86.3,46.6C151.7,168.5,144.3,193,145.1,221.9z M373,125.3
		c17.9,25.2,27.9,53.1,30,83.4c27.3,3.7,49.3,12.4,65.6,26.5c24.2,20.9,38.8,50.9,42.1,76.6c4.1,31.6-1.1,61.7-24.7,93
		c-19.8,26.4-48,40.8-84.3,43.2H127.3c-38.1-0.3-68.4-10.3-90.1-30.7c-21.7-20.3-34-48.4-37.2-85.1c0.7-35.2,11.8-64.6,33-87.3
		c18.4-19.6,44.2-32.2,77-38.4c1.9-30.6,11.8-57.9,29.5-81.5c28.8-38.4,69.4-59.1,112.8-60.8C297.7,62.4,343.5,83.6,373,125.3z
		 M247.8,182.7l-50.7,52.3c-7,7.2-7.1,18.8-0.2,26c6.9,7.1,18.2,7,25.2-0.2l20.1-20.8l0,108.5c0,9.3,6.6,17.1,15.3,18.3l2.4,0.2
		c9.8,0,17.7-8.3,17.7-18.5V239.6l20,20.6c6.9,7.1,18.2,7,25.2-0.2c7-7.2,7.1-18.8,0.2-26l-50-51.6
		C266.1,175.4,254.8,175.5,247.8,182.7z"/>
</g>
</svg>
