<?xml version="1.0" encoding="UTF-8" standalone="no"?>
<!DOCTYPE svg PUBLIC "-//W3C//DTD SVG 1.1//EN"
 "http://www.w3.org/Graphics/SVG/1.1/DTD/svg11.dtd">
<!-- Generated by graphviz version 2.40.1 (20161225.0304)
 -->
<!-- Title: D Pages: 1 -->
<svg width="591pt" height="631pt"
 viewBox="0.00 0.00 591.00 631.00" xmlns="http://www.w3.org/2000/svg" xmlns:xlink="http://www.w3.org/1999/xlink">
<g id="graph0" class="graph" transform="scale(1 1) rotate(0) translate(4 627)">
<title>D</title>
<polygon fill="#ffffff" stroke="transparent" points="-4,4 -4,-627 587,-627 587,4 -4,4"/>
<!-- step_1 -->
<g id="node1" class="node">
<title>step_1</title>
<text text-anchor="start" x="67.5" y="-605.9" font-family="Sans serif" font-weight="bold" font-size="12.00" fill="#000000">Step1</text>
<text text-anchor="start" x="67.5" y="-586.9" font-family="Sans serif" font-size="12.00" fill="#000000">Local PC</text>
<text text-anchor="start" x="67.5" y="-568.9" font-family="Sans serif" font-size="12.00" fill="#000000">(Developer machine)</text>
<text text-anchor="start" x="67.5" y="-550.9" font-family="Sans serif" font-size="12.00" fill="#000000">contribute source code</text>
<text text-anchor="start" x="67.5" y="-532.9" font-family="Sans serif" font-size="12.00" fill="#006400">commit</text>
<polygon fill="none" stroke="#000000" points="63,-526 63,-619 210,-619 210,-526 63,-526"/>
</g>
<!-- step_2 -->
<g id="node2" class="node">
<title>step_2</title>
<text text-anchor="start" x="206.5" y="-455.9" font-family="Sans serif" font-weight="bold" font-size="12.00" fill="#000000">Step 2</text>
<text text-anchor="start" x="206.5" y="-436.9" font-family="Sans serif" font-size="12.00" fill="#000000">Github receive and</text>
<text text-anchor="start" x="206.5" y="-418.9" font-family="Sans serif" font-size="12.00" fill="#000000">store the source code</text>
<text text-anchor="start" x="206.5" y="-400.9" font-family="Sans serif" font-size="12.00" fill="#006400">done</text>
<polygon fill="none" stroke="#000000" points="202.5,-394 202.5,-469 342.5,-469 342.5,-394 202.5,-394"/>
</g>
<!-- step_1&#45;&gt;step_2 -->
<g id="edge1" class="edge">
<title>step_1&#45;&gt;step_2</title>
<path fill="none" stroke="#000000" d="M172.0387,-521.7865C180.2712,-511.2136 189.3232,-500.4267 198.5,-491 202.0737,-487.329 205.8703,-483.6724 209.783,-480.0808"/>
<polygon fill="#000000" stroke="#000000" points="212.289,-482.5356 217.4224,-473.2674 207.6297,-477.3114 212.289,-482.5356"/>
<text text-anchor="middle" x="239.5" y="-494.4" font-family="Helvetica,sans-Serif" font-size="12.00" fill="#000000">Commit &amp; push</text>
</g>
<!-- step_3 -->
<g id="node3" class="node">
<title>step_3</title>
<text text-anchor="start" x="186.5" y="-310.9" font-family="Sans serif" font-weight="bold" font-size="12.00" fill="#000000">Step 3</text>
<text text-anchor="start" x="186.5" y="-291.9" font-family="Sans serif" font-size="12.00" fill="#000000">Travis Building start</text>
<text text-anchor="start" x="186.5" y="-273.9" font-family="Sans serif" font-size="12.00" fill="#000000">case 1. if the build occurs on the &quot;feature&quot; branch:</text>
<text text-anchor="start" x="186.5" y="-255.9" font-family="Sans serif" font-size="12.00" fill="#000000">it will be merged to &quot;develop&quot; by travis if the build result is &quot;OK&quot;.</text>
<text text-anchor="start" x="186.5" y="-232.9" font-family="Sans serif" font-size="12.00" fill="#c0392b">case 2. If the build occurs on the &quot;develop&quot; branch:</text>
<text text-anchor="start" x="186.5" y="-214.9" font-family="Sans serif" font-size="12.00" fill="#c0392b">It will deploy to the &quot;staging&quot; site if the build is &quot;OK&quot;</text>
<text text-anchor="start" x="186.5" y="-191.9" font-family="Sans serif" font-size="12.00" fill="#2980b9">case 3. If the build occurs on the &quot;master&quot; branch:</text>
<text text-anchor="start" x="186.5" y="-173.9" font-family="Sans serif" font-size="12.00" fill="#2980b9">It will deploy to the &quot;production&quot; site if the build is &quot;OK&quot;</text>
<text text-anchor="start" x="186.5" y="-155.9" font-family="Sans serif" font-size="12.00" fill="#006400">Deploy</text>
<polygon fill="none" stroke="#000000" points="182,-149 182,-324 575,-324 575,-149 182,-149"/>
</g>
<!-- step_2&#45;&gt;step_3 -->
<g id="edge2" class="edge">
<title>step_2&#45;&gt;step_3</title>
<path fill="none" stroke="#000000" d="M285.8852,-389.7708C291.0214,-375.5691 297.3797,-359.8042 304.5,-346 306.0251,-343.0432 307.6149,-340.0701 309.2571,-337.092"/>
<polygon fill="#000000" stroke="#000000" points="312.4377,-338.5786 314.3287,-328.1539 306.3495,-335.124 312.4377,-338.5786"/>
<text text-anchor="middle" x="338.5" y="-355.9" font-family="Helvetica,sans-Serif" font-size="12.00" fill="#000000">Trigger build</text>
</g>
<!-- firebase_production -->
<g id="node4" class="node">
<title>firebase_production</title>
<text text-anchor="start" x="303.5" y="-65.9" font-family="Sans serif" font-weight="bold" font-size="12.00" fill="#000000">Step 4</text>
<text text-anchor="start" x="303.5" y="-46.9" font-family="Sans serif" font-size="12.00" fill="#000000">firebase hosting</text>
<text text-anchor="start" x="303.5" y="-28.9" font-family="Sans serif" font-size="12.00" fill="#000000">production : production&#45;portfolio.web.app</text>
<text text-anchor="start" x="303.5" y="-10.9" font-family="Sans serif" font-size="12.00" fill="#006400">Done</text>
<polygon fill="none" stroke="#000000" points="299.5,-4 299.5,-79 557.5,-79 557.5,-4 299.5,-4"/>
</g>
<!-- step_3&#45;&gt;firebase_production -->
<g id="edge3" class="edge">
<title>step_3&#45;&gt;firebase_production</title>
<path fill="none" stroke="#000000" d="M401.9628,-144.9952C406.5001,-127.2995 411.1052,-109.3395 415.1773,-93.4586"/>
<polygon fill="#000000" stroke="#000000" points="418.6766,-93.9024 417.7701,-83.3464 411.896,-92.1637 418.6766,-93.9024"/>
<text text-anchor="start" x="411.5" y="-117.4" font-family="Helvetica,sans-Serif" font-size="12.00" fill="#2980b9">case3: Build and merge OK</text>
<text text-anchor="middle" x="485" y="-104.4" font-family="Helvetica,sans-Serif" font-size="12.00" fill="#2980b9">branch==&quot;master&quot;</text>
</g>
<!-- firebase_staging -->
<g id="node5" class="node">
<title>firebase_staging</title>
<text text-anchor="start" x="12.5" y="-65.9" font-family="Sans serif" font-weight="bold" font-size="12.00" fill="#000000">Step 4</text>
<text text-anchor="start" x="12.5" y="-46.9" font-family="Sans serif" font-size="12.00" fill="#000000">firebase hosting</text>
<text text-anchor="start" x="12.5" y="-28.9" font-family="Sans serif" font-size="12.00" fill="#000000">staging : staging&#45;portfolio&#45;c7cb5.web.app</text>
<text text-anchor="start" x="12.5" y="-10.9" font-family="Sans serif" font-size="12.00" fill="#006400">Done</text>
<polygon fill="none" stroke="#000000" points="8,-4 8,-79 265,-79 265,-4 8,-4"/>
</g>
<!-- step_3&#45;&gt;firebase_staging -->
<g id="edge4" class="edge">
<title>step_3&#45;&gt;firebase_staging</title>
<path fill="none" stroke="#000000" d="M264.9402,-144.9952C241.0927,-125.7793 216.8585,-106.2517 195.9613,-89.4131"/>
<polygon fill="#000000" stroke="#000000" points="198.1062,-86.6465 188.1235,-83.0974 193.7141,-92.0972 198.1062,-86.6465"/>
<text text-anchor="start" x="236.5" y="-117.4" font-family="Helvetica,sans-Serif" font-size="12.00" fill="#c0392b">case2: Build and merge OK</text>
<text text-anchor="middle" x="310" y="-104.4" font-family="Helvetica,sans-Serif" font-size="12.00" fill="#c0392b">branch==&quot;develop&quot;</text>
</g>
<!-- merge_develop_to_feature -->
<g id="node6" class="node">
<title>merge_develop_to_feature</title>
<text text-anchor="start" x="248.5" y="-605.9" font-family="Sans serif" font-weight="bold" font-size="12.00" fill="#000000">Merge updated develop branch</text>
<text text-anchor="start" x="248.5" y="-587.9" font-family="Sans serif" font-weight="bold" font-size="12.00" fill="#000000">to feature branch</text>
<text text-anchor="start" x="248.5" y="-568.9" font-family="Sans serif" font-size="12.00" fill="#000000">developer merge the updated develop branch</text>
<text text-anchor="start" x="248.5" y="-550.9" font-family="Sans serif" font-size="12.00" fill="#000000">its feature branch and test again</text>
<text text-anchor="start" x="248.5" y="-532.9" font-family="Sans serif" font-size="12.00" fill="#006400">Done</text>
<polygon fill="none" stroke="#000000" points="244,-526 244,-619 529,-619 529,-526 244,-526"/>
</g>
<!-- step_3&#45;&gt;merge_develop_to_feature -->
<g id="edge5" class="edge">
<title>step_3&#45;&gt;merge_develop_to_feature</title>
<path fill="none" stroke="#000000" d="M380.6837,-328.2137C382.0723,-386.5352 383.8316,-460.4292 385.0499,-511.5948"/>
<polygon fill="#000000" stroke="#000000" points="381.5565,-511.9198 385.2937,-521.8336 388.5545,-511.7531 381.5565,-511.9198"/>
<text text-anchor="middle" x="446" y="-428.4" font-family="Helvetica,sans-Serif" font-size="12.00" fill="#000000">Merge to &quot;develop&quot; Fail</text>
</g>
<!-- firebase_staging&#45;&gt;step_1 -->
<g id="edge7" class="edge">
<title>firebase_staging&#45;&gt;step_1</title>
<path fill="none" stroke="#000000" d="M136.5,-83.2878C136.5,-176.6013 136.5,-402.2772 136.5,-511.3977"/>
<polygon fill="#000000" stroke="#000000" points="133.0001,-511.5855 136.5,-521.5855 140.0001,-511.5855 133.0001,-511.5855"/>
<text text-anchor="start" x="136.5" y="-362.4" font-family="Helvetica,sans-Serif" font-size="12.00" fill="#000000">Fetch updated </text>
<text text-anchor="middle" x="184" y="-349.4" font-family="Helvetica,sans-Serif" font-size="12.00" fill="#000000"> &quot;develop&quot; branch</text>
</g>
<!-- merge_develop_to_feature&#45;&gt;step_2 -->
<g id="edge6" class="edge">
<title>merge_develop_to_feature&#45;&gt;step_2</title>
<path fill="none" stroke="#000000" d="M305.2891,-521.6324C299.7939,-516.1488 294.76,-510.2644 290.5,-504 286.1898,-497.6618 282.9104,-490.386 280.4156,-482.9433"/>
<polygon fill="#000000" stroke="#000000" points="283.7155,-481.7561 277.5671,-473.1278 276.9929,-483.7071 283.7155,-481.7561"/>
<text text-anchor="middle" x="331.5" y="-494.4" font-family="Helvetica,sans-Serif" font-size="12.00" fill="#000000">Commit &amp; push</text>
</g>
</g>
</svg>
