<svg width="261" height="260" viewBox="0 0 261 260" fill="none" xmlns="http://www.w3.org/2000/svg">
<g filter="url(#filter0_d_20_1663)">
<rect x="40.724" y="36" width="180" height="180" rx="32" fill="white"/>
<rect x="41.224" y="36.5" width="179" height="179" rx="31.5" stroke="#D9D9D9"/>
</g>
<path d="M146.954 173.187C154.342 146.696 151.684 133.342 138.732 130.776C140.71 139.771 142.936 149.014 133.477 155.258C128.531 158.535 124.605 157.267 115.826 150.529C111.777 158.844 113.137 167.128 115.022 176C102.441 173.805 92.5185 168.581 87.9126 156.433C83.1522 145.366 85.7797 132.538 94.435 124.192C97.4644 121.1 100.741 118.287 104.234 115.753C118.392 105.119 121.143 94.7944 113.662 78.813C113.322 77.8856 113.044 76.9583 112.859 76C128.593 78.3802 143.492 84.7172 156.166 94.3617C183.77 116.927 180.432 157.515 149.953 172.414C148.902 172.476 147.913 172.723 146.954 173.187Z" fill="#EE4854"/>
<defs>
<filter id="filter0_d_20_1663" x="0.723999" y="0" width="260" height="260" filterUnits="userSpaceOnUse" color-interpolation-filters="sRGB">
<feFlood flood-opacity="0" result="BackgroundImageFix"/>
<feColorMatrix in="SourceAlpha" type="matrix" values="0 0 0 0 0 0 0 0 0 0 0 0 0 0 0 0 0 0 127 0" result="hardAlpha"/>
<feOffset dy="4"/>
<feGaussianBlur stdDeviation="20"/>
<feComposite in2="hardAlpha" operator="out"/>
<feColorMatrix type="matrix" values="0 0 0 0 0.0367917 0 0 0 0 0.0348958 0 0 0 0 0.0484375 0 0 0 0.1 0"/>
<feBlend mode="normal" in2="BackgroundImageFix" result="effect1_dropShadow_20_1663"/>
<feBlend mode="normal" in="SourceGraphic" in2="effect1_dropShadow_20_1663" result="shape"/>
</filter>
</defs>
</svg>
