<svg width="261" height="260" viewBox="0 0 261 260" fill="none" xmlns="http://www.w3.org/2000/svg">
<g filter="url(#filter0_d_20_1662)">
<rect x="40.724" y="36" width="180" height="180" rx="32" fill="white"/>
<rect x="41.224" y="36.5" width="179" height="179" rx="31.5" stroke="#D9D9D9"/>
</g>
<path d="M84.9951 81.011H176.662V170.178H84.9951V81.011Z" fill="#2E001E"/>
<path d="M80.8284 76.8442V174.344H180.828V76.8442H80.8284ZM84.995 81.0109H176.662V170.178H84.995V81.0109Z" fill="#FF2BC2"/>
<path d="M153.453 117.803C152.828 117.511 152.037 117.386 151.037 117.386C145.787 117.386 142.287 121.428 142.287 128.136C142.287 135.802 145.87 138.886 150.537 138.886C151.537 138.886 152.62 138.761 153.412 138.427V117.803H153.453ZM134.787 128.469C134.787 118.761 141.037 111.178 151.287 111.178C152.162 111.178 152.62 111.178 153.453 111.261V100.428C153.453 100.178 153.662 100.011 153.87 100.011H160.578C160.912 100.011 160.995 100.136 160.995 100.344V138.427C160.995 139.552 160.995 140.969 161.203 142.511C161.203 142.802 161.203 142.844 160.953 142.969C157.453 144.636 153.787 145.386 150.287 145.386C141.245 145.386 134.787 139.802 134.787 128.469ZM120.578 121.719L132.245 144.344C132.453 144.677 132.328 145.011 131.995 145.011H124.745C124.287 145.011 124.078 144.886 123.87 144.469C121.203 138.969 118.495 133.261 115.703 127.344H115.62C113.12 132.927 110.37 139.011 107.703 144.511C107.495 144.844 107.287 144.969 106.953 144.969H100.037C99.62 144.969 99.5784 144.636 99.7867 144.386L111.203 122.428L100.162 100.594C99.9117 100.261 100.162 99.9692 100.453 99.9692H107.62C108.037 99.9692 108.245 100.053 108.37 100.428C110.995 105.969 113.662 111.428 116.162 117.011H116.245C118.662 111.511 121.328 105.969 123.87 100.511C124.078 100.178 124.203 99.9692 124.62 99.9692H131.328C131.662 99.9692 131.787 100.219 131.578 100.594L120.578 121.719Z" fill="#FF2BC2"/>
<defs>
<filter id="filter0_d_20_1662" x="0.723999" y="0" width="260" height="260" filterUnits="userSpaceOnUse" color-interpolation-filters="sRGB">
<feFlood flood-opacity="0" result="BackgroundImageFix"/>
<feColorMatrix in="SourceAlpha" type="matrix" values="0 0 0 0 0 0 0 0 0 0 0 0 0 0 0 0 0 0 127 0" result="hardAlpha"/>
<feOffset dy="4"/>
<feGaussianBlur stdDeviation="20"/>
<feComposite in2="hardAlpha" operator="out"/>
<feColorMatrix type="matrix" values="0 0 0 0 0.0367917 0 0 0 0 0.0348958 0 0 0 0 0.0484375 0 0 0 0.1 0"/>
<feBlend mode="normal" in2="BackgroundImageFix" result="effect1_dropShadow_20_1662"/>
<feBlend mode="normal" in="SourceGraphic" in2="effect1_dropShadow_20_1662" result="shape"/>
</filter>
</defs>
</svg>
